<svg width="112" height="112" viewBox="0 0 112 112" fill="none" xmlns="http://www.w3.org/2000/svg">
<g id="Icono/Logo">
<g id="Group">
<g id="Group_2">
<path id="Vector" d="M48.736 46.673H43.5762C42.4002 46.673 41.4468 47.6418 41.4468 48.8368V54.0797C41.4468 55.2747 42.4002 56.2435 43.5762 56.2435H48.736C49.912 56.2435 50.8654 55.2747 50.8654 54.0797V48.8368C50.8654 47.6418 49.912 46.673 48.736 46.673Z" fill="#5333ED"/>
<path id="Vector_2" d="M63.9239 46.673H58.7642C57.5881 46.673 56.6348 47.6418 56.6348 48.8368V54.0797C56.6348 55.2747 57.5881 56.2435 58.7642 56.2435H63.9239C65.1 56.2435 66.0534 55.2747 66.0534 54.0797V48.8368C66.0534 47.6418 65.1 46.673 63.9239 46.673Z" fill="#5333ED"/>
<path id="Vector_3" d="M48.736 62.3742H43.5762C42.4002 62.3742 41.4468 63.3429 41.4468 64.5379V69.7809C41.4468 70.9759 42.4002 71.9446 43.5762 71.9446H48.736C49.912 71.9446 50.8654 70.9759 50.8654 69.7809V64.5379C50.8654 63.3429 49.912 62.3742 48.736 62.3742Z" fill="#5333ED"/>
<path id="Vector_4" d="M63.9239 62.3741H58.7642C57.5881 62.3741 56.6348 63.3429 56.6348 64.5379V69.7808C56.6348 70.9759 57.5881 71.9446 58.7642 71.9446H63.9239C65.1 71.9446 66.0534 70.9759 66.0534 69.7808V64.5379C66.0534 63.3429 65.1 62.3741 63.9239 62.3741Z" fill="#5333ED"/>
</g>
<path id="Vector_5" d="M100.261 45.397C99.3418 40.5425 95.2832 36.9916 95.2832 36.9916L63.2327 7.00419C53.3227 0.244762 45.3692 7.00419 45.3692 7.00419L25.6857 25.7845C22.8191 27.5044 21.7089 24.7581 21.7089 24.7581V20.8189C20.9627 15.9829 15.6483 15.4835 15.6483 15.4835C10.7615 15.4835 9.26 20.8189 9.26 20.8189V58.4073C9.3874 89.8002 37.0608 100.924 37.0608 100.924C44.6412 105.39 61.4581 103.809 61.4581 103.809C72.4602 102.589 79.7129 96.4579 79.7129 96.4579C81.3054 95.2374 82.7888 96.0141 82.7888 96.0141L91.8069 105.501C95.9384 108.608 100.115 106.001 100.316 105.501C103.937 101.331 101.389 97.3549 101.389 97.3549L91.4611 87.0262C90.6057 85.9998 91.8979 84.0487 91.8979 84.0487C102.381 73.3964 100.261 45.397 100.261 45.397ZM53.987 91.9825C53.987 91.9825 17.5775 94.1462 20.9172 48.1988C20.9991 47.0799 21.5087 46.035 22.3186 45.2768L52.4945 17.3051C52.4945 17.3051 54.0962 15.7147 55.6614 17.3051L85.7099 45.4525C86.5107 46.2015 87.0021 47.2279 87.0931 48.3282C87.7574 56.4839 88.4399 90.4105 53.987 91.9825Z" fill="#202F59"/>
</g>
</g>
</svg>
