<svg width="64" height="64" viewBox="0 0 64 64" fill="none" xmlns="http://www.w3.org/2000/svg">
<path d="M0 32C0 14.3269 14.3269 0 32 0V0C49.6731 0 64 14.3269 64 32V32C64 49.6731 49.6731 64 32 64V64C14.3269 64 0 49.6731 0 32V32Z" fill="#202F59"/>
<path d="M53.3337 50.6667C53.3337 47.8377 52.2098 45.1246 50.2095 43.1242C48.2091 41.1238 45.496 40 42.667 40H21.3337C18.5047 40 15.7916 41.1238 13.7912 43.1242C11.7908 45.1246 10.667 47.8377 10.667 50.6667" stroke="white" stroke-width="5" stroke-linecap="round" stroke-linejoin="round"/>
<path d="M32.0007 29.3333C37.8917 29.3333 42.6673 24.5577 42.6673 18.6667C42.6673 12.7756 37.8917 8 32.0007 8C26.1096 8 21.334 12.7756 21.334 18.6667C21.334 24.5577 26.1096 29.3333 32.0007 29.3333Z" stroke="white" stroke-width="5" stroke-linecap="round" stroke-linejoin="round"/>
</svg>
