<svg width="300" height="60" viewBox="0 0 300 60" fill="none" xmlns="http://www.w3.org/2000/svg">
<path d="M40.853 15.4288L33.7231 46.5579C31.3563 56.889 20.9501 60 13.4682 60C7.85431 60 3.15977 58.3428 0.274583 56.0265C-0.116628 55.697 -0.0775135 55.2318 0.313698 54.6988L3.43361 50.7253C3.89328 50.1922 4.3334 49.9984 4.86154 50.3279C7.49243 51.9851 10.3776 52.7799 14.3875 52.7799C18.3974 52.7799 24.4906 51.2583 25.7229 45.8892L26.5444 42.313C23.5028 45.0945 19.708 47.0812 15.2971 47.0812C6.14275 47.0812 1.18414 39.5316 3.27712 30.3925C5.3701 21.2534 13.7812 13.7038 22.9355 13.7038C27.0823 13.7038 30.0458 15.6227 31.8356 18.3363L32.706 15.4192C32.9114 14.828 33.3319 14.4306 33.9383 14.4306H40.0901C40.6867 14.4306 40.9997 14.828 40.8628 15.4192L40.853 15.4288ZM28.5494 30.3344C29.5959 25.7697 26.9943 21.6605 22.1824 21.6605C17.3705 21.6605 12.8814 25.4983 11.7762 30.3344C10.6515 35.2383 13.3019 39.1439 18.1823 39.1439C23.0626 39.1439 27.5029 34.9087 28.5494 30.3344Z" fill="#5333ED"/>
<path d="M39.8261 30.7317C42.0071 21.1953 51.2788 13.7134 60.6972 13.7134C70.1156 13.7134 75.9544 21.1953 73.7734 30.7317C71.5924 40.2681 62.3207 47.7499 52.9023 47.7499C43.4839 47.7499 37.6451 40.2681 39.8261 30.7317ZM65.2842 30.7317C66.4871 25.4983 63.5237 21.7961 58.8487 21.7961C54.1737 21.7961 49.5085 25.508 48.3154 30.7317C47.1222 35.9651 50.0073 39.6769 54.7508 39.6769C59.4942 39.6769 64.091 35.9651 65.2842 30.7317Z" fill="#5333ED"/>
<path d="M128.347 43.5148L124.68 47.0909C124.201 47.5561 123.663 47.624 123.203 47.1588L117.951 41.8575C113.951 45.1042 109.364 47.4883 103.613 47.4883C95.6616 47.4883 87.9254 42.7879 88.0819 34.0462C88.1895 27.9503 92.5319 24.1803 97.1971 21.1953C94.3706 18.2781 92.0918 15.0412 92.1603 11.1258C92.2679 5.2334 97.5003 0 104.718 0C111.936 0 117.061 5.2334 116.953 11.1258C116.856 16.5531 113.188 20.0032 108.992 22.8525L117.726 31.5264C118.606 30.6639 119.428 29.7335 120.249 28.8128C120.66 28.3476 121.188 28.3476 121.658 28.745L125.668 32.5828C126.127 32.9801 126.186 33.5132 125.775 33.9784L123.183 36.8955L128.367 42.0611C128.827 42.5262 128.817 43.0593 128.338 43.5148H128.347ZM112.435 36.4303L102.85 26.7582C99.6031 28.8806 97.0993 30.9934 97.0407 33.8427C96.9918 36.7598 99.7498 39.4734 104.092 39.4734C107.232 39.4734 109.931 38.2814 112.435 36.4303ZM103.545 17.4253C106.655 15.5742 108.953 13.7135 109.002 11.3293C109.041 9.20691 107.134 7.42368 104.591 7.42368C102.048 7.42368 100.219 9.2166 100.18 11.3293C100.141 13.3839 101.579 15.3029 103.545 17.4253Z" fill="#202F59"/>
<path d="M170.315 43.5148L166.647 47.0909C166.168 47.5561 165.63 47.624 165.17 47.1588L159.918 41.8575C155.918 45.1042 151.331 47.4883 145.58 47.4883C137.629 47.4883 129.893 42.7879 130.049 34.0462C130.157 27.9503 134.499 24.1803 139.164 21.1953C136.338 18.2781 134.059 15.0412 134.128 11.1258C134.235 5.2334 139.468 0 146.685 0C153.903 0 159.028 5.2334 158.921 11.1258C158.823 16.5531 155.155 20.0032 150.959 22.8525L159.693 31.5264C160.573 30.6639 161.395 29.7335 162.217 28.8128C162.627 28.3476 163.155 28.3476 163.625 28.745L167.635 32.5828C168.095 32.9801 168.153 33.5132 167.742 33.9784L165.151 36.8955L170.334 42.0611C170.794 42.5262 170.784 43.0593 170.305 43.5148H170.315ZM154.402 36.4303L144.817 26.7582C141.57 28.8806 139.067 30.9934 139.008 33.8427C138.959 36.7598 141.717 39.4734 146.06 39.4734C149.199 39.4734 151.898 38.2814 154.402 36.4303ZM145.512 17.4253C148.622 15.5742 150.92 13.7135 150.969 11.3293C151.008 9.20691 149.101 7.42368 146.558 7.42368C144.015 7.42368 142.187 9.2166 142.147 11.3293C142.108 13.3839 143.546 15.3029 145.512 17.4253Z" fill="#5333ED"/>
<path d="M209.436 37.8162C209.328 44.106 202.775 47.75 196.761 47.75C191.147 47.75 186.648 45.0363 184.359 42.3227C183.968 41.8575 184.105 41.3923 184.379 40.995L187.049 37.351C187.46 36.818 187.929 36.9536 188.516 37.4188C191.156 39.1439 194.012 40.4038 196.614 40.4038C198.756 40.4038 200.839 39.7448 200.868 37.6902C200.956 32.5246 185.083 34.5114 185.279 23.5891C185.386 17.3671 190.932 13.7231 196.81 13.7231C201.015 13.7231 205.269 15.4482 207.949 18.627C208.34 19.0922 208.204 19.6156 207.861 20.0129L205.26 23.3274C204.849 23.8604 204.389 23.7248 203.793 23.2596C201.279 21.6023 199.763 20.7398 197.426 20.7398C195.352 20.7398 193.797 21.864 193.768 23.5212C193.68 28.8225 209.631 25.9053 209.416 37.8259L209.436 37.8162Z" fill="#202F59"/>
<path d="M229.475 15.4289L229.387 20.5944C229.378 21.1953 228.967 21.5926 228.37 21.5926H223.695L223.265 45.8989C223.255 46.4998 222.844 46.8874 222.248 46.8874H215.431C214.825 46.8874 214.433 46.4901 214.443 45.8989L214.873 21.5926H210.198C209.592 21.5926 209.201 21.1953 209.211 20.5944L209.299 15.4289C209.308 14.8377 209.719 14.4403 210.316 14.4403H214.991L215.147 5.49508C215.157 4.89421 215.568 4.49686 216.164 4.49686H222.981C223.588 4.49686 223.979 4.89421 223.969 5.49508L223.813 14.4403H228.488C229.094 14.4403 229.485 14.8377 229.475 15.4289Z" fill="#202F59"/>
<path d="M264.098 15.4288L263.56 45.8892C263.55 46.4901 263.139 46.8777 262.543 46.8777H256.391C255.794 46.8777 255.462 46.4804 255.403 45.8892L255.188 43.1077C252.801 45.8214 249.496 47.7403 245.212 47.7403C236.058 47.7403 229.505 40.1906 229.671 30.722C229.837 21.2534 236.654 13.7038 245.809 13.7038C249.955 13.7038 253.261 15.6905 255.677 18.472L255.931 15.4288C256.009 14.8377 256.352 14.4403 256.948 14.4403H263.1C263.697 14.4403 264.098 14.8377 264.088 15.4288H264.098ZM254.943 30.6639C255.031 25.76 251.559 21.6605 246.747 21.6605C241.936 21.6605 238.258 25.4983 238.17 30.6639C238.082 35.8973 241.554 39.8029 246.425 39.8029C251.295 39.8029 254.855 35.5678 254.943 30.6639Z" fill="#202F59"/>
<path d="M299.913 15.5645L281.849 58.682C281.643 59.215 281.164 59.4767 280.626 59.4767H273.946C273.213 59.4767 272.822 59.0793 273.164 58.3524L278.113 46.965L266.034 15.5742C265.78 14.8474 266.122 14.45 266.856 14.45H273.741C274.279 14.45 274.739 14.7117 274.924 15.2447L282.563 36.7017L290.896 15.2447C291.101 14.7117 291.58 14.45 292.108 14.45H299.121C299.854 14.45 300.177 14.8474 299.903 15.5742L299.913 15.5645Z" fill="#202F59"/>
</svg>
